Coordinates
version=1
nRows=5
nColumns=40
inDegrees=yes

Units are S.I. units (second, meters, Newtons, ...)
Angles are in degrees.

endheader
time	pelvis_tilt	pelvis_list	pelvis_rotation	pelvis_tx	pelvis_ty	pelvis_tz	hip_flexion_r	hip_adduction_r	hip_rotation_r	knee_angle_r	knee_angle_r_beta	ankle_angle_r	subtalar_angle_r	mtp_angle_r	hip_flexion_l	hip_adduction_l	hip_rotation_l	knee_angle_l	knee_angle_l_beta	ankle_angle_l	subtalar_angle_l	mtp_angle_l	lumbar_extension	lumbar_bending	lumbar_rotation	arm_flex_r	arm_add_r	arm_rot_r	elbow_flex_r	pro_sup_r	wrist_flex_r	wrist_dev_r	arm_flex_l	arm_add_l	arm_rot_l	elbow_flex_l	pro_sup_l	wrist_flex_l	wrist_dev_l
      1.12000000	     -1.63941363	     -4.80514526	      9.34221385	     -0.03939510	      0.94968295	     -0.99149387	     16.99490458	      2.84111292	    -18.04017028	    -21.53867735	     -0.37592084	      1.77770938	     -9.27704925	      1.59963461	     12.06361774	     12.64237081	      6.55685109	    -60.55757591	     -1.05692909	      2.10839722	     17.88592091	     11.36889642	     -1.78603358	      4.89283131	     -5.60275573	     -0.59537764	    -11.34588370	    -26.29353238	     15.67982386	     89.95437384	      0.00000000	      0.00000000	      2.30987185	     11.09038069	      6.03910952	     22.05181637	     89.95437384	      0.00000000	      0.00000000
      1.13000000	     -1.60755308	     -4.57364578	      9.62794032	     -0.03040670	      0.95146432	     -0.99110842	     15.92073435	      2.73311291	    -18.55837463	    -20.85484231	     -0.36398566	      2.18555309	     -8.86043925	      1.49778534	     13.67954797	     11.95569110	      5.90594288	    -61.14455100	     -1.06717373	      2.88993907	     17.89805896	     11.26495222	     -1.99648268	      4.57621051	     -5.54572871	     -0.22401244	    -11.41712967	    -26.38604164	     15.89047302	     89.95437384	      0.00000000	      0.00000000	      1.94654380	     11.22059038	      6.03171788	     21.71683739	     89.95437384	      0.00000000	      0.00000000
      1.14000000	     -1.63395090	     -4.25657684	      9.64246970	     -0.02133627	      0.95311597	     -0.99043221	     15.00599645	      2.57465103	    -18.88381179	    -20.38432564	     -0.35577360	      2.53483895	     -8.61481686	      1.42180725	     15.15287243	     11.33332353	      5.84932160	    -61.35923952	     -1.07092076	      3.35238688	     17.79815336	     11.09799601	     -2.16366002	      4.15900554	     -5.24331718	      0.09931247	    -11.50148063	    -26.32235612	     16.17453287	     89.95437384	      0.00000000	      0.00000000	      1.50946478	     11.37363317	      5.94505359	     21.47703804	     89.95437384	      0.00000000	      0.00000000
      1.15000000	     -1.70384348	     -3.90796627	      9.80434359	     -0.01272942	      0.95467195	     -0.98999281	     14.07158542	      2.36610462	    -19.15526363	    -19.72069018	     -0.34419097	      2.93290602	     -8.06046045	      1.29872415	     16.66528363	     10.41086596	      5.30757488	    -61.28292517	     -1.06958882	      4.02991198	     17.68677605	     10.93900813	     -2.33690925	      3.70119934	     -5.10497319	      0.47251491	    -11.55229807	    -26.20300327	     16.42849488	     89.95437384	      0.00000000	      0.00000000	      1.16361745	     11.54759872	      5.89979983	     21.17315383	     89.95437384	      0.00000000	      0.00000000
      1.16000000	     -1.81164853	     -3.59003873	      9.67724056	     -0.00374015	      0.95598385	     -0.98912451	     13.28850962	      2.21016434	    -19.44223753	    -19.27651747	     -0.33643870	      3.25257658	     -7.74368282	      1.20288954	     18.06681351	      9.78020742	      5.40123010	    -60.92131790	     -1.06327758	      4.33362854	     17.47660395	     10.79995122	     -2.42099053	      3.24494257	     -4.73900395	      0.89858416	    -11.63380353	    -26.07957001	     16.67747552	     89.95437384	      0.00000000	      0.00000000	      0.66136288	     11.72198310	      5.86715239	     20.97573273	     89.95437384	      0.00000000	      0.00000000
